<svg xmlns="http://www.w3.org/2000/svg" version="1.1" xmlns:xlink="http://www.w3.org/1999/xlink" width="200" height="200"><svg xmlns="http://www.w3.org/2000/svg" version="1.1" xmlns:xlink="http://www.w3.org/1999/xlink" width="200" height="200"><svg xmlns="http://www.w3.org/2000/svg" version="1.1" xmlns:xlink="http://www.w3.org/1999/xlink" viewBox="0 0 200 200"><rect width="200" height="200" fill="url('#gradient')"></rect><defs><linearGradient id="gradient" gradientTransform="rotate(80 0.5 0.5)"><stop offset="0%" stop-color="#9ee4ff"></stop><stop offset="100%" stop-color="#ffffff"></stop></linearGradient></defs><g><g fill="#0069d2" transform="matrix(1.8087252606937647,0,0,1.8087252606937647,15.059371584008211,113.38691037062965)" stroke="#007bff" stroke-width="0.2"><path d="M1.07-14.22L5.58-14.22L8.75-4.33L11.91-14.22L16.43-14.22L16.43 0L12.99 0L12.99-3.32L13.32-10.12L9.88 0L7.62 0L4.17-10.13L4.50-3.32L4.50 0L1.07 0L1.07-14.22ZM20.91-14.22L23.54-8.05L26.15-14.22L29.85-14.22L25.27-5.11L25.27 0L21.80 0L21.80-5.11L17.23-14.22L20.91-14.22ZM42.25-7.60L42.25-1.76Q41.46-0.88 39.93-0.34Q38.41 0.20 36.59 0.20L36.59 0.20Q33.80 0.20 32.13-1.51Q30.46-3.22 30.34-6.27L30.34-6.27L30.33-7.50Q30.33-9.60 31.07-11.17Q31.82-12.73 33.20-13.58Q34.58-14.42 36.40-14.42L36.40-14.42Q39.05-14.42 40.52-13.21Q41.99-11.99 42.24-9.58L42.24-9.58L38.94-9.58Q38.76-10.77 38.17-11.28Q37.59-11.79 36.51-11.79L36.51-11.79Q35.22-11.79 34.52-10.69Q33.82-9.60 33.81-7.57L33.81-7.57L33.81-6.71Q33.81-4.58 34.54-3.51Q35.26-2.44 36.83-2.44L36.83-2.44Q38.16-2.44 38.82-3.04L38.82-3.04L38.82-5.24L36.44-5.24L36.44-7.60L42.25-7.60ZM50.54-10.64L50.48-7.59L49.39-7.67Q47.84-7.67 47.40-6.69L47.40-6.69L47.40 0L44.11 0L44.11-10.57L47.20-10.57L47.30-9.21Q48.13-10.76 49.62-10.76L49.62-10.76Q50.15-10.76 50.54-10.64L50.54-10.64ZM60.62 0L57.32 0Q57.15-0.32 57.01-0.95L57.01-0.95Q56.10 0.20 54.47 0.20L54.47 0.20Q52.98 0.20 51.93-0.71Q50.89-1.61 50.89-2.98L50.89-2.98Q50.89-4.70 52.16-5.58Q53.43-6.46 55.85-6.46L55.85-6.46L56.87-6.46L56.87-7.01Q56.87-8.47 55.61-8.47L55.61-8.47Q54.43-8.47 54.43-7.31L54.43-7.31L51.14-7.31Q51.14-8.85 52.45-9.80Q53.75-10.76 55.77-10.76Q57.79-10.76 58.96-9.78Q60.14-8.79 60.17-7.07L60.17-7.07L60.17-2.39Q60.19-0.94 60.62-0.17L60.62-0.17L60.62 0ZM55.26-2.15L55.26-2.15Q55.88-2.15 56.28-2.41Q56.69-2.68 56.87-3.01L56.87-3.01L56.87-4.70L55.91-4.70Q54.19-4.70 54.19-3.15L54.19-3.15Q54.19-2.71 54.49-2.43Q54.79-2.15 55.26-2.15ZM61.57-5.36L61.57-5.36Q61.57-7.87 62.66-9.32Q63.74-10.76 65.68-10.76L65.68-10.76Q67.10-10.76 68.07-9.65L68.07-9.65L68.07-15L71.37-15L71.37 0L68.41 0L68.24-1.13Q67.23 0.20 65.66 0.20L65.66 0.20Q63.78 0.20 62.68-1.25Q61.57-2.70 61.57-5.36ZM64.87-5.76L64.86-5.16Q64.86-2.34 66.50-2.34L66.50-2.34Q67.60-2.34 68.07-3.26L68.07-3.26L68.07-7.29Q67.62-8.22 66.52-8.22L66.52-8.22Q65-8.22 64.87-5.76L64.87-5.76ZM78.35 0.20L78.35 0.20Q75.92 0.20 74.41-1.25Q72.91-2.71 72.91-5.03L72.91-5.03L72.91-5.30Q72.91-6.92 73.51-8.16Q74.11-9.40 75.26-10.08Q76.42-10.76 78.00-10.76L78.00-10.76Q80.22-10.76 81.51-9.38Q82.80-8.00 82.80-5.53L82.80-5.53L82.80-4.25L76.26-4.25Q76.44-3.36 77.03-2.85Q77.63-2.34 78.57-2.34L78.57-2.34Q80.14-2.34 81.02-3.44L81.02-3.44L82.52-1.66Q81.90-0.81 80.78-0.31Q79.65 0.20 78.35 0.20ZM77.98-8.22L77.98-8.22Q76.53-8.22 76.26-6.31L76.26-6.31L79.58-6.31L79.58-6.56Q79.60-7.35 79.18-7.79Q78.76-8.22 77.98-8.22ZM89.66-2.97L89.66-2.97Q89.66-3.39 89.22-3.64Q88.78-3.90 87.55-4.17Q86.32-4.44 85.52-4.89Q84.72-5.33 84.30-5.97Q83.88-6.60 83.88-7.42L83.88-7.42Q83.88-8.88 85.08-9.82Q86.28-10.76 88.22-10.76L88.22-10.76Q90.31-10.76 91.58-9.81Q92.85-8.87 92.85-7.32L92.85-7.32L89.55-7.32Q89.55-8.59 88.21-8.59L88.21-8.59Q87.70-8.59 87.34-8.31Q86.99-8.02 86.99-7.59L86.99-7.59Q86.99-7.15 87.42-6.88Q87.85-6.60 88.79-6.43Q89.74-6.25 90.45-6.01L90.45-6.01Q92.83-5.19 92.83-3.07L92.83-3.07Q92.83-1.62 91.55-0.71Q90.26 0.20 88.22 0.20L88.22 0.20Q86.87 0.20 85.80-0.29Q84.74-0.78 84.14-1.62Q83.54-2.46 83.54-3.39L83.54-3.39L86.62-3.39Q86.64-2.66 87.11-2.32Q87.58-1.98 88.31-1.98L88.31-1.98Q88.98-1.98 89.32-2.26Q89.66-2.53 89.66-2.97Z"></path></g></g></svg></svg><style>@media (prefers-color-scheme: light) { :root { filter: none; } }
@media (prefers-color-scheme: dark) { :root { filter: none; } }
</style></svg>